<?xml version="1.0" standalone="no"?>
<!DOCTYPE svg PUBLIC "-//W3C//DTD SVG 20010904//EN"
 "http://www.w3.org/TR/2001/REC-SVG-20010904/DTD/svg10.dtd">
<svg version="1.0" xmlns="http://www.w3.org/2000/svg"
 width="1024.000000pt" height="1024.000000pt" viewBox="0 0 1024.000000 1024.000000"
 preserveAspectRatio="xMidYMid meet">

<g transform="translate(0.000000,1024.000000) scale(0.100000,-0.100000)"
fill="#000000" stroke="none">
<path d="M4015 8976 c-16 -24 -16 -29 0 -79 21 -68 88 -153 166 -214 33 -26
56 -50 52 -54 -5 -4 -60 -30 -123 -57 -63 -27 -221 -99 -350 -160 -129 -60
-287 -130 -350 -155 -207 -81 -440 -139 -659 -163 -70 -8 -101 -28 -101 -66 0
-80 81 -224 192 -343 l78 -83 -78 -27 c-166 -59 -252 -116 -268 -180 -4 -15 1
-39 13 -62 14 -30 29 -42 68 -58 l51 -20 -29 -90 c-23 -71 -30 -115 -34 -210
-12 -260 31 -428 271 -1070 l104 -280 69 -8 c97 -10 153 -29 206 -68 l46 -34
1 -288 c0 -287 0 -288 26 -349 61 -146 161 -256 293 -323 109 -55 130 -57 476
-58 302 0 324 1 385 21 182 60 332 210 376 376 10 36 14 119 14 284 l0 232
199 0 199 0 4 -252 3 -253 43 -89 c33 -69 58 -104 110 -155 73 -72 175 -131
257 -150 31 -7 172 -12 365 -14 301 -2 318 -1 386 20 81 26 204 102 252 157
61 69 127 187 144 254 7 29 11 150 12 316 l1 270 41 31 c53 41 143 69 221 70
l62 0 110 295 c198 527 250 700 271 896 33 308 -93 589 -342 764 l-68 48 88
38 c152 66 233 129 248 190 21 82 -43 165 -156 202 -141 47 -352 51 -514 11
-63 -15 -184 -59 -262 -95 -7 -3 -24 33 -45 92 -59 172 -177 352 -320 490
-219 210 -469 333 -799 391 -80 15 -171 17 -585 18 l-490 1 -120 27 c-189 44
-190 44 -210 13z m2295 -2013 c149 -172 273 -373 349 -566 69 -175 132 -452
147 -642 l6 -90 -28 41 c-36 51 -122 127 -172 153 -95 48 -122 51 -532 51
-419 0 -454 -4 -552 -57 -64 -35 -143 -120 -174 -188 l-25 -55 -218 0 -217 0
-23 51 c-36 79 -120 163 -209 206 l-76 38 -399 3 c-260 2 -417 -1 -451 -8
-113 -23 -238 -105 -293 -193 -13 -21 -27 -37 -29 -34 -8 7 24 280 47 410 39
226 87 393 110 390 8 0 68 -15 134 -31 264 -67 462 -88 760 -79 312 9 556 51
820 138 318 106 617 283 850 502 39 36 73 66 77 67 3 0 48 -48 98 -107z
m-1782 -1275 c60 -15 145 -96 161 -153 18 -65 14 -560 -4 -623 -20 -68 -97
-152 -173 -189 l-57 -28 -315 0 -315 0 -57 27 c-79 37 -142 98 -181 177 l-32
66 1 250 c0 211 3 257 17 294 35 90 104 153 195 177 64 17 693 19 760 2z
m1929 -3 c65 -19 109 -50 150 -103 53 -70 58 -101 58 -377 l0 -250 -28 -57
c-32 -66 -112 -143 -184 -179 -48 -24 -51 -24 -363 -24 l-315 0 -57 27 c-69
32 -136 97 -169 163 -24 50 -24 52 -24 345 0 269 2 298 19 330 36 69 92 114
161 131 17 4 181 7 366 8 270 1 345 -2 386 -14z"/>
<path d="M4080 6250 c-179 -4 -209 -7 -233 -24 -84 -57 -73 -204 18 -242 49
-20 680 -21 728 0 56 24 81 60 81 116 0 54 -18 87 -67 123 -48 37 -93 39 -527
27z"/>
<path d="M5623 6234 c-38 -19 -69 -64 -77 -114 -8 -45 17 -97 63 -127 34 -23
37 -23 373 -23 367 0 385 2 426 55 35 44 38 88 11 142 -43 83 -44 83 -429 83
-286 0 -340 -3 -367 -16z"/>
<path d="M4172 5603 c-81 -39 -117 -132 -110 -277 8 -141 62 -228 152 -243 78
-12 161 48 192 141 21 62 24 205 5 259 -37 109 -149 165 -239 120z"/>
<path d="M5920 5609 c-38 -15 -69 -49 -97 -104 -21 -41 -26 -64 -26 -140 -1
-107 12 -159 56 -217 78 -102 214 -84 276 36 21 41 26 67 29 148 5 116 -7 171
-51 223 -48 59 -122 80 -187 54z"/>
<path d="M4471 3324 c0 -11 3 -14 6 -6 3 7 2 16 -1 19 -3 4 -6 -2 -5 -13z"/>
<path d="M4390 3286 c-93 -26 -169 -67 -190 -104 -12 -19 -19 -41 -16 -48 3
-8 2 -14 -3 -14 -13 0 1 -64 18 -78 9 -8 10 -11 4 -7 -42 21 23 -65 91 -121
84 -70 155 -160 209 -268 76 -150 68 -204 -47 -306 -41 -36 -129 -116 -196
-177 -67 -62 -130 -113 -140 -113 -34 0 -62 52 -154 295 -58 153 -100 251
-109 253 -28 6 -314 -97 -472 -169 -209 -96 -309 -153 -436 -249 -194 -146
-389 -359 -389 -426 0 -26 6 -33 38 -47 102 -45 727 -187 752 -172 6 3 10 2
10 -3 0 -25 776 -119 1190 -143 264 -16 888 -16 1140 -1 469 29 932 86 1280
157 69 14 140 28 158 30 48 8 407 100 472 122 43 14 57 24 64 46 12 34 -3 62
-90 167 -233 281 -528 463 -1039 641 -77 27 -150 49 -161 49 -14 0 -25 -9 -32
-27 -6 -16 -48 -129 -94 -253 -79 -213 -108 -270 -141 -270 -17 0 -397 341
-419 377 -36 58 -14 149 71 292 23 39 57 87 76 107 27 28 32 40 23 46 -10 7
-9 8 2 6 25 -5 80 40 74 60 -5 14 -4 14 4 3 9 -12 13 -12 26 -2 19 16 21 38 4
44 -7 2 -10 8 -6 12 4 4 14 3 21 -4 11 -8 18 -7 31 8 10 11 13 21 7 25 -5 3
-11 -2 -13 -11 -3 -10 -5 2 -5 27 0 36 1 40 7 20 7 -21 8 -18 9 18 1 43 -6 51
-27 30 -9 -9 -12 -9 -12 0 0 7 4 12 9 12 5 0 13 9 16 20 3 11 11 20 17 20 7 0
7 -5 -1 -14 -9 -11 -8 -15 5 -20 9 -4 19 -4 22 -1 3 3 0 5 -7 5 -7 0 -11 6 -8
14 17 44 -103 127 -205 141 -15 2 -37 6 -48 10 -25 8 -26 -10 -6 -140 l13 -90
-53 -72 c-30 -40 -54 -76 -54 -79 0 -4 -17 -32 -37 -62 -20 -31 -47 -76 -61
-101 -13 -26 -46 -84 -73 -131 -276 -470 -386 -654 -394 -657 -5 -1 -17 9 -26
25 -9 15 -74 124 -144 242 -71 118 -161 271 -200 340 -69 120 -190 326 -224
382 -26 44 -76 113 -83 116 -3 2 -2 17 3 35 11 38 12 197 2 196 -5 0 -28 -6
-53 -13z m-153 -98 c-3 -8 -6 -5 -6 6 -1 11 2 17 5 13 3 -3 4 -12 1 -19z
m1743 -28 c0 -5 -2 -10 -4 -10 -3 0 -8 5 -11 10 -3 6 -1 10 4 10 6 0 11 -4 11
-10z m-1770 -20 c0 -5 -5 -10 -11 -10 -5 0 -7 5 -4 10 3 6 8 10 11 10 2 0 4
-4 4 -10z m190 -23 c11 -5 9 -6 -4 -4 -11 1 -21 9 -23 17 -3 10 -2 11 4 4 4
-6 15 -14 23 -17z m1445 3 c4 -6 1 -9 -7 -8 -9 2 -13 -9 -13 -34 0 -28 -3 -34
-12 -26 -9 7 -13 7 -13 -2 0 -8 -2 -11 -5 -8 -8 7 25 88 35 88 5 0 12 -5 15
-10z m-1635 -10 c0 -5 -4 -10 -10 -10 -5 0 -10 5 -10 10 0 6 5 10 10 10 6 0
10 -4 10 -10z m1680 6 c0 -3 -4 -8 -10 -11 -5 -3 -10 -1 -10 4 0 6 5 11 10 11
6 0 10 -2 10 -4z m1037 -1542 c-3 -3 -12 -4 -19 -1 -8 3 -5 6 6 6 11 1 17 -2
13 -5z m-3584 -21 c-7 -2 -19 -2 -25 0 -7 3 -2 5 12 5 14 0 19 -2 13 -5z"/>
<path d="M6031 3074 c0 -11 3 -14 6 -6 3 7 2 16 -1 19 -3 4 -6 -2 -5 -13z"/>
</g>
</svg>
